<svg width="59" height="58" viewBox="0 0 59 58" fill="none" xmlns="http://www.w3.org/2000/svg">
<path d="M30.3679 29.2871C29.4508 29.2871 28.5543 29.0136 27.7919 28.5013C27.0296 27.9889 26.4355 27.2607 26.0851 26.4088C25.7346 25.557 25.6435 24.6197 25.8231 23.7158C26.0028 22.8118 26.4453 21.9818 27.0945 21.3307C27.7438 20.6796 28.5706 20.2368 29.4703 20.0582C30.37 19.8797 31.3022 19.9735 32.1489 20.3277C32.9955 20.682 33.7186 21.2807 34.2266 22.0482C34.7345 22.8157 35.0046 23.7175 35.0024 24.6393C35.0038 25.2515 34.8849 25.8579 34.6525 26.4237C34.4201 26.9896 34.0788 27.5037 33.6481 27.9366C33.2175 28.3694 32.706 28.7125 32.1431 28.9461C31.5802 29.1797 30.9769 29.2993 30.3679 29.2979V29.2871Z" fill="#696969"/>
<path fill-rule="evenodd" clip-rule="evenodd" d="M30.3679 13.1969C34.0734 13.1969 34.5112 13.1969 35.9849 13.2828C36.8639 13.2949 37.7343 13.4583 38.5585 13.7658C39.1679 13.994 39.7163 14.3615 40.1603 14.8392C40.6285 15.2872 40.9931 15.8332 41.2281 16.4386C41.5351 17.2704 41.6976 18.149 41.7087 19.0362C41.7728 20.5067 41.7834 20.9468 41.7834 24.6715C41.7834 28.3962 41.7834 28.847 41.7087 30.3176C41.6966 31.2011 41.5341 32.0761 41.2281 32.9045C40.9999 33.5087 40.6468 34.0574 40.1921 34.5144C39.7374 34.9714 39.1916 35.3263 38.5905 35.5558C37.7664 35.8633 36.8959 36.0267 36.0169 36.0388C34.5433 36.1032 34.1054 36.1139 30.3999 36.1139C26.6944 36.1139 26.2566 36.1139 24.7936 36.0388C23.911 36.0277 23.0369 35.8643 22.2093 35.5558C21.6071 35.3195 21.0639 34.9531 20.6182 34.4824C20.1429 34.0361 19.7773 33.4849 19.5503 32.8723C19.2444 32.0439 19.0819 31.1689 19.0698 30.2854L19.0678 30.2397C19.0053 28.8051 18.9843 28.3252 18.9843 24.6393C18.9843 20.9146 18.9843 20.4745 19.0698 19.004C19.0808 18.1168 19.2434 17.2382 19.5503 16.4063C19.7774 15.7969 20.1431 15.2492 20.6182 14.807C21.0581 14.3294 21.603 13.9619 22.2093 13.7336C23.0369 13.4251 23.911 13.2617 24.7936 13.2506L24.8511 13.248C26.2687 13.1856 26.7434 13.1647 30.3999 13.1647L30.3679 13.1969ZM30.3679 17.4797C28.9566 17.4797 27.577 17.9006 26.4037 18.6889C25.2304 19.4773 24.3161 20.5977 23.7765 21.9086C23.2369 23.2194 23.0962 24.6617 23.3723 26.0529C23.6484 27.444 24.3289 28.7217 25.3276 29.724C26.3263 30.7264 27.5983 31.4084 28.9828 31.6839C30.3672 31.9593 31.8018 31.8158 33.1051 31.2715C34.4084 30.7271 35.5217 29.8064 36.3043 28.6258C37.0868 27.4453 37.5034 26.0579 37.5013 24.6393C37.5027 23.6978 37.319 22.7653 36.9609 21.8953C36.6028 21.0253 36.0773 20.235 35.4144 19.5698C34.7516 18.9045 33.9646 18.3774 33.0986 18.0188C32.2325 17.6601 31.3045 17.4769 30.3679 17.4797ZM39.164 18.1202C39.3471 17.8449 39.4448 17.5211 39.4448 17.1899C39.4448 16.7458 39.2693 16.3199 38.9569 16.0059C38.6445 15.6918 38.2207 15.5154 37.7789 15.5154C37.4494 15.5154 37.1273 15.6136 36.8534 15.7976C36.5794 15.9816 36.3659 16.2432 36.2398 16.5491C36.1138 16.8551 36.0808 17.1918 36.145 17.5166C36.2093 17.8414 36.368 18.1398 36.601 18.374C36.8339 18.6082 37.1308 18.7676 37.4539 18.8323C37.7771 18.8969 38.112 18.8637 38.4164 18.737C38.7208 18.6102 38.981 18.3956 39.164 18.1202Z" fill="#696969"/>
<path fill-rule="evenodd" clip-rule="evenodd" d="M13.0149 10.0302C17.1642 5.9822 22.7918 3.70804 29.5002 3.70804C35.3681 3.70804 43.1648 5.9822 47.3141 10.0302C51.4633 14.0783 53.7943 19.5686 53.7943 25.2934C53.7943 25.2934 55.0958 49.2771 52.4929 49.2771C50.8427 49.2771 49.1925 46.3853 47.9844 44.2682C47.287 43.046 46.7369 42.082 46.4193 42.082C46.0832 42.082 45.0959 43.162 43.8863 44.4851C41.9737 46.5772 39.5054 49.2771 38.1767 49.2771C36.8479 49.2771 34.2169 46.5772 32.1782 44.4851C30.8888 43.162 29.8364 42.082 29.5002 42.082C29.1641 42.082 28.1808 43.162 26.9762 44.4851C25.0715 46.5772 22.6134 49.2771 21.2847 49.2771C19.9559 49.2771 17.8132 46.5772 16.1529 44.4851C15.1029 43.162 14.2458 42.082 13.9097 42.082C13.5735 42.082 12.9118 43.162 12.1011 44.4851C10.8192 46.5772 9.16489 49.2771 7.83614 49.2771C5.66702 49.2771 6.53467 25.2934 6.53467 25.2934C6.53467 19.5686 8.86569 14.0783 13.0149 10.0302ZM30.3679 10.6851C26.5983 10.6851 26.0964 10.6851 24.6441 10.771C23.4945 10.7915 22.3568 11.0093 21.2803 11.415C20.3506 11.7636 19.5084 12.3132 18.8135 13.0251C18.1074 13.7254 17.5609 14.5714 17.2117 15.5047C16.808 16.5868 16.5913 17.7304 16.5709 18.8859C16.4855 20.3457 16.4855 20.8502 16.4855 24.6393C16.4855 28.4284 16.4855 28.9329 16.5709 30.3927C16.5916 31.5517 16.8082 32.6987 17.2117 33.7847C17.5613 34.7146 18.1079 35.5569 18.8135 36.2535C19.5055 36.969 20.3485 37.5192 21.2803 37.8636C22.3575 38.2684 23.4944 38.4897 24.6441 38.5183C26.0964 38.5935 26.5983 38.5935 30.3679 38.5935C34.1375 38.5935 34.6394 38.5935 36.0917 38.5183C37.2448 38.4895 38.3852 38.2682 39.4662 37.8636C40.3933 37.5162 41.2322 36.9663 41.9223 36.2535C42.6279 35.5569 43.1744 34.7146 43.5241 33.7847C43.9266 32.6981 44.1468 31.5518 44.1755 30.3927C44.2502 28.9329 44.2502 28.4284 44.2502 24.6393C44.2502 20.8502 44.2502 20.3457 44.1755 18.8859C44.147 17.7303 43.9268 16.5875 43.5241 15.5047C43.1749 14.5714 42.6284 13.7254 41.9223 13.0251C41.2293 12.3159 40.3913 11.7665 39.4662 11.415C38.3858 11.0095 37.2447 10.7918 36.0917 10.771C34.6394 10.6851 34.1375 10.6851 30.3679 10.6851Z" fill="#696969"/>
</svg>
